<svg width="204" height="204" viewBox="0 0 204 204" fill="none" xmlns="http://www.w3.org/2000/svg">
<path d="M30 34C30 31.7909 31.7909 30 34 30V30C36.2091 30 38 31.7909 38 34V34C38 36.2091 36.2091 38 34 38V38C31.7909 38 30 36.2091 30 34V34Z" fill="#E6E6E6" fill-opacity="0.6"/>
<path d="M98 34C98 31.7909 99.7909 30 102 30V30C104.209 30 106 31.7909 106 34V34C106 36.2091 104.209 38 102 38V38C99.7909 38 98 36.2091 98 34V34Z" fill="#E6E6E6" fill-opacity="0.6"/>
<path d="M166 34C166 31.7909 167.791 30 170 30V30C172.209 30 174 31.7909 174 34V34C174 36.2091 172.209 38 170 38V38C167.791 38 166 36.2091 166 34V34Z" fill="#E6E6E6" fill-opacity="0.6"/>
<path d="M30 102C30 99.7909 31.7909 98 34 98V98C36.2091 98 38 99.7909 38 102V102C38 104.209 36.2091 106 34 106V106C31.7909 106 30 104.209 30 102V102Z" fill="#E6E6E6" fill-opacity="0.6"/>
<path d="M98 102C98 99.7909 99.7909 98 102 98V98C104.209 98 106 99.7909 106 102V102C106 104.209 104.209 106 102 106V106C99.7909 106 98 104.209 98 102V102Z" fill="#E6E6E6" fill-opacity="0.6"/>
<path d="M166 102C166 99.7909 167.791 98 170 98V98C172.209 98 174 99.7909 174 102V102C174 104.209 172.209 106 170 106V106C167.791 106 166 104.209 166 102V102Z" fill="#E6E6E6" fill-opacity="0.6"/>
<path d="M30 170C30 167.791 31.7909 166 34 166V166C36.2091 166 38 167.791 38 170V170C38 172.209 36.2091 174 34 174V174C31.7909 174 30 172.209 30 170V170Z" fill="#E6E6E6" fill-opacity="0.6"/>
<path d="M98 170C98 167.791 99.7909 166 102 166V166C104.209 166 106 167.791 106 170V170C106 172.209 104.209 174 102 174V174C99.7909 174 98 172.209 98 170V170Z" fill="#E6E6E6" fill-opacity="0.6"/>
<path d="M166 170C166 167.791 167.791 166 170 166V166C172.209 166 174 167.791 174 170V170C174 172.209 172.209 174 170 174V174C167.791 174 166 172.209 166 170V170Z" fill="#E6E6E6" fill-opacity="0.6"/>
</svg>
